<svg height="457pt" viewBox="0 -15 457.14286 457" width="457pt" xmlns="http://www.w3.org/2000/svg"><path d="m427.792969.0703125h-398.445313c-16.179687 0-29.347656 13.1679685-29.347656 29.3476565v284.984375c0 16.183594 13.167969 29.351562 29.347656 29.351562h141.359375v64.933594h-8.796875c-5.054687 0-9.140625 4.09375-9.140625 9.144531 0 5.046875 4.085938 9.140625 9.140625 9.140625h133.320313c5.054687 0 9.144531-4.09375 9.144531-9.140625 0-5.050781-4.089844-9.144531-9.144531-9.144531h-8.875v-64.933594h141.4375c16.179687 0 29.351562-13.167968 29.351562-29.351562v-284.984375c0-16.179688-13.171875-29.3476565-29.351562-29.3476565zm-398.445313 18.2851565h398.445313c6.101562 0 11.0625 4.964843 11.0625 11.0625v242.125h-420.570313v-242.125c0-6.097657 4.964844-11.0625 11.0625-11.0625zm238.722656 390.332031h-79.078124v-64.933594h79.078124zm159.722657-83.21875h-398.445313c-6.097656 0-11.0625-4.964844-11.0625-11.066406v-24.570313h420.570313v24.570313c0 6.101562-4.960938 11.066406-11.0625 11.066406zm0 0"/><path d="m186.816406 189.496094-68.667968-34.421875v-.351563l68.667968-34.417968v-12.121094l-81.480468 41.972656v9.488281l81.480468 41.96875zm0 0"/><path d="m259.230469 81.316406h-11.941407l-48.992187 127.316406h11.769531zm0 0"/><path d="m351.808594 149.984375-81.480469-41.800781v12.121094l69.183594 34.417968v.351563l-69.183594 34.421875v12.117187l81.480469-41.796875zm0 0"/></svg>